<?xml version="1.0" encoding="UTF-8" standalone="no"?>
<!-- Created with Inkscape (http://www.inkscape.org/) -->

<svg
   width="54.376614"
   height="52.237999"
   version="1.1"
   id="svg2665"
   xmlns="http://www.w3.org/2000/svg"
   xmlns:svg="http://www.w3.org/2000/svg"
   xmlns:rdf="http://www.w3.org/1999/02/22-rdf-syntax-ns#"
   xmlns:cc="http://creativecommons.org/ns#"
   xmlns:dc="http://purl.org/dc/elements/1.1/">
  <defs
     id="defs2669" />
  <metadata
     id="metadata2643">
    <rdf:RDF>
      <cc:Work
         rdf:about="">
        <dc:format>image/svg+xml</dc:format>
        <dc:type
           rdf:resource="http://purl.org/dc/dcmitype/StillImage" />
      </cc:Work>
    </rdf:RDF>
  </metadata>
  <g
     transform="matrix(0.03956513,0,0,0.03956513,-2.3795656,-0.07897595)"
     id="g2663">
    <g
       transform="translate(-1058,-229.5)"
       id="g2649">
      <path
         d="m 1726.9,1551.8 c 0,-110.52 4e-4,-969.69 4e-4,-1122.8 h 765.54 v 1122.8 z m 369.04,-36.762 c 80.202,-6.5137 135.68,-19.61 184.5,-43.551 29.242,-14.341 49.454,-28.568 71.076,-50.029 22.422,-22.255 36.49,-41.671 49.995,-69 17.771,-35.962 25.988,-70.812 27.117,-115 0.8162,-31.959 -1.712,-54.675 -9.0708,-81.5 -21.872,-79.731 -84.796,-142.48 -171.48,-171.01 -8.0477,-2.6488 -16.332,-5.1316 -18.409,-5.5174 -4.2981,-0.79831 -6.3087,-3.3757 -4.4342,-5.6842 0.6662,-0.82044 5.0363,-2.9799 9.7113,-4.7987 36.524,-14.21 74.143,-39.667 98.652,-66.756 46.835,-51.766 65.717,-112.75 56.738,-183.23 -11.285,-88.59 -67.23,-153.57 -159.39,-185.13 -32,-10.958 -64.249,-17.39 -108.04,-21.549 -14.638,-1.3903 -28.619,-1.7596 -67.465,-1.7824 -57.894,-0.034 -86.14,1.6073 -138.5,8.0479 -19.658,2.418 -63.239,9.4466 -69.5,11.209 l -3,0.84431 -0.251,487.37999 c -0.1381,268.06 0.1202,487.75 0.574,488.2 1.6427,1.6427 74.578,7.7275 116.68,9.734 23.702,1.1297 117.31,0.5195 134.5,-0.8768 z m -82.5,-83.143 c -32.791,-1.0047 -59.253,-3.8325 -62.051,-6.6308 -1.2555,-1.2555 -1.4489,-27.929 -1.4489,-199.8 0,-109.09 0.2731,-199.06 0.607,-199.93 0.5447,-1.4196 7.1323,-1.5807 64.25,-1.5715 76.729,0.013 92.412,1.0674 127.9,8.6039 90.31,19.178 149.2,68.639 167.74,140.89 5.2632,20.508 6.8464,36.121 6.2345,61.483 -0.5685,23.56 -2.3437,36.356 -7.6461,55.116 -21.804,77.143 -89.211,125.44 -193.89,138.93 -27.895,3.5944 -54.451,4.353 -101.7,2.9053 z m -62.25,-491.06 c -0.9901,-1.0083 -1.2468,-36.112 -1.2347,-168.82 0.01,-92.152 0.4012,-168.16 0.8729,-168.9 2.0208,-3.189 32.794,-7.4392 66.008,-9.1166 94.614,-4.7782 158.11,6.6639 203.59,36.69 12.094,7.9838 30.9,26.328 38.227,37.288 12.402,18.552 19.896,38.417 23.954,63.492 2.3655,14.619 2.3886,45.914 0.044,59.5 -9.3674,54.281 -41.895,97.334 -93.608,123.9 -23.694,12.171 -50.028,20.009 -83.105,24.736 -15.489,2.2133 -152.71,3.313 -154.75,1.2402 z"
         id="path2647"
         style="fill:#295ca2;fill-opacity:1" />
    </g>
    <g
       id="g2661"
       style="fill:#ffffff">
      <rect
         x="1042"
         y="1.9960999"
         width="52"
         height="118.5"
         style="paint-order:stroke fill markers;fill:#ffffff"
         id="rect2651" />
      <rect
         x="1155.5"
         y="1.9960999"
         width="52"
         height="118.5"
         style="paint-order:stroke fill markers;fill:#ffffff"
         id="rect2653" />
      <rect
         x="1269"
         y="1.9960999"
         width="52"
         height="118.5"
         style="paint-order:stroke fill markers;fill:#ffffff"
         id="rect2655" />
      <rect
         x="1382.5"
         y="1.9960999"
         width="52"
         height="118.5"
         style="paint-order:stroke fill markers;fill:#ffffff"
         id="rect2657" />
      <path
         d="m 60.143,1.9961 v 118.5 h 389.17 v 1201.5 h 140.69 v -1201.5 h 390.5 v -118.5 z"
         style="paint-order:stroke fill markers;fill:#ffffff"
         id="path2659" />
    </g>
  </g>
</svg>
